<svg width="25" height="25" viewBox="0 0 25 25" fill="none" xmlns="http://www.w3.org/2000/svg">
<g clip-path="url(#clip0_1_842)">
<path d="M20.376 17.583L16.8799 17.3486C16.626 17.334 16.377 17.4023 16.1719 17.5537C15.9668 17.7051 15.8203 17.915 15.7617 18.1641L14.9023 21.5625C14.1357 21.7676 13.3301 21.875 12.5 21.875C11.6699 21.875 10.8643 21.7676 10.0977 21.5625L9.23828 18.1641C9.1748 17.9199 9.02832 17.7051 8.82812 17.5537C8.62793 17.4023 8.37402 17.334 8.12012 17.3486L4.62402 17.583C3.76465 16.2549 3.23242 14.6924 3.13965 13.0127L6.10352 11.1475C6.31836 11.0107 6.47461 10.8057 6.55273 10.5664C6.63086 10.3271 6.62109 10.0684 6.52832 9.83398L5.22461 6.58203C6.25 5.33203 7.58301 4.3457 9.11621 3.75488L11.8115 6.00098C12.0068 6.16211 12.251 6.25 12.5 6.25C12.749 6.25 12.998 6.16211 13.1885 6.00098L15.8838 3.75488C17.4121 4.3457 18.75 5.33203 19.7705 6.58203L18.4668 9.83398C18.374 10.0684 18.3643 10.3271 18.4424 10.5664C18.5205 10.8057 18.6816 11.0107 18.8916 11.1475L21.8555 13.0127C21.7627 14.6924 21.2305 16.2549 20.3711 17.583H20.376ZM12.5 25C15.8152 25 18.9946 23.683 21.3388 21.3388C23.683 18.9946 25 15.8152 25 12.5C25 9.18479 23.683 6.00537 21.3388 3.66117C18.9946 1.31696 15.8152 0 12.5 0C9.18479 0 6.00537 1.31696 3.66117 3.66117C1.31696 6.00537 0 9.18479 0 12.5C0 15.8152 1.31696 18.9946 3.66117 21.3388C6.00537 23.683 9.18479 25 12.5 25ZM13.1885 9.09668C12.7783 8.79883 12.2217 8.79883 11.8115 9.09668L9.47266 10.791C9.0625 11.0889 8.8916 11.6162 9.04785 12.0996L9.94141 14.8486C10.0977 15.332 10.5469 15.6592 11.0547 15.6592H13.9453C14.4531 15.6592 14.9023 15.332 15.0586 14.8486L15.9521 12.0996C16.1084 11.6162 15.9375 11.0889 15.5273 10.791L13.1885 9.0918V9.09668Z" fill="white"/>
</g>
<defs>
<clipPath id="clip0_1_842">
<rect width="25" height="25" fill="white"/>
</clipPath>
</defs>
</svg>
