<svg width="28" height="19" viewBox="0 0 28 19" fill="none" xmlns="http://www.w3.org/2000/svg">
<path d="M7.96 11.064L8.392 13.92H8.512L8.992 11.04L12.208 1.2H15.664L9.424 18.12H7.072L0.784 1.2H4.6L7.96 11.064ZM24.1255 13.488C24.1255 12.976 23.9335 12.56 23.5495 12.24C23.1815 11.92 22.7095 11.632 22.1335 11.376C21.5735 11.104 20.9575 10.832 20.2855 10.56C19.6295 10.272 19.0135 9.928 18.4375 9.528C17.8775 9.112 17.4055 8.6 17.0215 7.992C16.6535 7.384 16.4695 6.608 16.4695 5.664C16.4695 4.848 16.6055 4.144 16.8775 3.552C17.1495 2.944 17.5335 2.44 18.0295 2.04C18.5415 1.64 19.1415 1.344 19.8295 1.152C20.5175 0.959999 21.2855 0.863999 22.1335 0.863999C23.1095 0.863999 24.0295 0.951999 24.8935 1.128C25.7575 1.288 26.4695 1.528 27.0295 1.848L25.9975 4.608C25.6455 4.384 25.1175 4.184 24.4135 4.008C23.7095 3.816 22.9495 3.72 22.1335 3.72C21.3655 3.72 20.7735 3.872 20.3575 4.176C19.9575 4.48 19.7575 4.888 19.7575 5.4C19.7575 5.88 19.9415 6.28 20.3095 6.6C20.6935 6.92 21.1655 7.216 21.7255 7.488C22.3015 7.76 22.9175 8.04 23.5735 8.328C24.2455 8.616 24.8615 8.968 25.4215 9.384C25.9975 9.784 26.4695 10.288 26.8375 10.896C27.2215 11.488 27.4135 12.232 27.4135 13.128C27.4135 14.024 27.2615 14.8 26.9575 15.456C26.6695 16.096 26.2535 16.632 25.7095 17.064C25.1815 17.496 24.5335 17.816 23.7655 18.024C23.0135 18.232 22.1815 18.336 21.2695 18.336C20.0695 18.336 19.0135 18.224 18.1015 18C17.1895 17.776 16.5175 17.552 16.0855 17.328L17.1415 14.52C17.3175 14.616 17.5415 14.72 17.8135 14.832C18.1015 14.944 18.4215 15.048 18.7735 15.144C19.1255 15.24 19.4935 15.32 19.8775 15.384C20.2775 15.448 20.6855 15.48 21.1015 15.48C22.0775 15.48 22.8215 15.32 23.3335 15C23.8615 14.664 24.1255 14.16 24.1255 13.488Z" fill="white"/>
</svg>
